<svg version="1.1" xmlns="http://www.w3.org/2000/svg" viewBox="-1952.0539307752863 -1664.64002532959 7828.790185658098 2810.1120208740235"><desc>Created with Snap</desc><defs></defs><g><g transform="matrix(31.5197,0,0,31.5197,-2519.8915,-1837.0624)"><title>Scribble</title><path d="M42.91,66C41.51,55.07,31.69,46.67,31.46,35.7c-.27-13,17.71-20.24,28.26-15.23s11.22,18.85,6.37,28.19c-2.14,4.12-5.21,7.68-7.27,11.88-1.28,2.61-3.71,6.7-2.85,9.63l1.74-2.28c-4.11-.25-18.21-1.66-19.4,4.58-1.46,7.67,17.19,1.78,16.83,4.07-.27,1.76-16.42-3.8-17.55,2.8C36,88.6,54.4,81.27,56.88,84.27c1.48,1.79,4-.77,2.55-2.54s-3.5-1.5-5.65-1.45c-2.3,0-4.6.15-6.89.23l-3,.1c-1.43-1-1.16-1.32.83-.85,3.89-.88,12.44,3,14.91-1.58,2.56-4.74-4.1-6.2-7.2-6.13a36.62,36.62,0,0,0-3.92.38c-1.53.2-7.4,1.39-3.48-.43,3.5-1.63,9-.73,12.64-.51a1.82,1.82,0,0,0,1.74-2.28C58.81,67.07,62,62.07,63,60.38c1.41-2.55,3.08-4.92,4.67-7.36a29.9,29.9,0,0,0,4.93-16c.19-10.32-5.83-19.4-16.31-21.41-10-1.92-22.53,3.32-26.95,12.83C23,42,37.7,53.37,39.31,66c.29,2.27,3.89,2.3,3.6,0Z" fill="#6daedb" style=""></path><desc>Created with Snap</desc><defs></defs></g><g><g transform="matrix(1.024,0,0,-1.024,0,0)"><path d="M577 0L212 455L212 0L74 0L74 710L181 710L551 244L551 709L689 709L689 0L577 0ZM1066 -10Q1002 -10 951 12Q900 34 864 71Q829 109 810 158Q791 207 791 261Q791 316 810 365Q829 414 864 451Q900 489 951 511Q1002 533 1066 533Q1130 533 1180 511Q1231 489 1266 451Q1302 414 1321 365Q1340 316 1340 261Q1340 207 1321 158Q1302 109 1267 71Q1232 34 1181 12Q1130 -10 1066 -10ZM929 261Q929 226 939 197Q950 169 968 148Q987 127 1012 115Q1037 104 1066 104Q1095 104 1120 115Q1145 127 1163 148Q1182 169 1192 198Q1203 227 1203 262Q1203 296 1192 325Q1182 354 1163 375Q1145 396 1120 407Q1095 419 1066 419Q1037 419 1012 407Q987 395 968 374Q950 353 939 324Q929 295 929 261ZM1917 327L1917 0L1783 0L1783 294Q1783 357 1761 386Q1739 415 1700 415Q1680 415 1659 407Q1638 399 1619 384Q1601 370 1586 350Q1571 330 1564 306L1564 0L1430 0L1430 524L1551 524L1551 427Q1580 477 1635 505Q1690 533 1759 533Q1808 533 1839 515Q1870 497 1887 468Q1904 439 1910 402Q1917 365 1917 327ZM2540 0L2540 80Q2455 -5 2342 -5Q2272 -5 2210 23Q2149 51 2103 100Q2058 149 2031 215Q2005 282 2005 359Q2005 432 2031 496Q2058 561 2104 609Q2151 658 2214 686Q2277 715 2351 715Q2451 715 2522 673Q2594 631 2630 560L2527 484Q2500 537 2451 565Q2403 593 2346 593Q2301 593 2263 574Q2226 555 2199 522Q2173 489 2158 446Q2144 403 2144 355Q2144 305 2160 261Q2176 218 2204 186Q2232 154 2270 135Q2309 117 2354 117Q2457 117 2540 214L2540 264L2397 264L2397 365L2654 365L2654 0L2540 0ZM3001 -10Q2937 -10 2886 12Q2835 34 2799 71Q2764 109 2745 158Q2726 207 2726 261Q2726 316 2745 365Q2764 414 2799 451Q2835 489 2886 511Q2937 533 3001 533Q3065 533 3115 511Q3166 489 3201 451Q3237 414 3256 365Q3275 316 3275 261Q3275 207 3256 158Q3237 109 3202 71Q3167 34 3116 12Q3065 -10 3001 -10ZM2864 261Q2864 226 2874 197Q2885 169 2903 148Q2922 127 2947 115Q2972 104 3001 104Q3030 104 3055 115Q3080 127 3098 148Q3117 169 3127 198Q3138 227 3138 262Q3138 296 3127 325Q3117 354 3098 375Q3080 396 3055 407Q3030 419 3001 419Q2972 419 2947 407Q2922 395 2903 374Q2885 353 2874 324Q2864 295 2864 261ZM3607 -10Q3543 -10 3492 12Q3441 34 3405 71Q3370 109 3351 158Q3332 207 3332 261Q3332 316 3351 365Q3370 414 3405 451Q3441 489 3492 511Q3543 533 3607 533Q3671 533 3721 511Q3772 489 3807 451Q3843 414 3862 365Q3881 316 3881 261Q3881 207 3862 158Q3843 109 3808 71Q3773 34 3722 12Q3671 -10 3607 -10ZM3470 261Q3470 226 3480 197Q3491 169 3509 148Q3528 127 3553 115Q3578 104 3607 104Q3636 104 3661 115Q3686 127 3704 148Q3723 169 3733 198Q3744 227 3744 262Q3744 296 3733 325Q3723 354 3704 375Q3686 396 3661 407Q3636 419 3607 419Q3578 419 3553 407Q3528 395 3509 374Q3491 353 3480 324Q3470 295 3470 261ZM4176 -3Q4123 -3 4080 18Q4037 39 4005 75Q3974 112 3957 160Q3940 208 3940 262Q3940 319 3958 368Q3976 417 4008 454Q4040 491 4085 512Q4130 533 4184 533Q4245 533 4291 505Q4337 478 4367 432L4367 524L4484 524L4484 25Q4484 -33 4462 -79Q4440 -125 4401 -157Q4363 -189 4309 -206Q4256 -223 4193 -223Q4107 -223 4048 -195Q3990 -166 3948 -114L4021 -43Q4051 -80 4096 -101Q4142 -122 4193 -122Q4224 -122 4252 -114Q4281 -105 4303 -87Q4325 -69 4337 -41Q4350 -13 4350 25L4350 91Q4324 46 4277 21Q4230 -3 4176 -3ZM4221 104Q4243 104 4263 111Q4283 118 4300 130Q4317 142 4330 158Q4343 174 4350 192L4350 317Q4332 363 4293 391Q4255 419 4213 419Q4182 419 4157 405Q4132 392 4114 369Q4096 347 4086 318Q4077 289 4077 258Q4077 226 4088 198Q4099 170 4118 149Q4138 128 4164 116Q4190 104 4221 104ZM4604 121L4604 730L4738 730L4738 168Q4738 139 4752 123Q4766 107 4792 107Q4804 107 4818 111Q4833 115 4846 121L4864 19Q4837 6 4801 -1Q4765 -8 4736 -8Q4673 -8 4638 25Q4604 59 4604 121ZM5165 -10Q5102 -10 5051 11Q5000 33 4964 70Q4928 107 4908 156Q4889 205 4889 259Q4889 315 4908 364Q4927 414 4963 451Q4999 489 5050 511Q5102 533 5166 533Q5230 533 5280 511Q5331 489 5366 452Q5402 415 5420 366Q5439 317 5439 264Q5439 251 5438 239Q5438 227 5436 219L5031 219Q5034 188 5046 164Q5058 140 5077 123Q5096 106 5120 97Q5144 88 5170 88Q5210 88 5245 107Q5281 127 5294 159L5409 127Q5380 67 5316 28Q5253 -10 5165 -10ZM5029 306L5301 306Q5296 365 5257 400Q5219 436 5164 436Q5137 436 5113 426Q5090 417 5072 400Q5054 383 5042 359Q5031 335 5029 306Z" fill="#6daedb" style=""></path></g></g></g></svg>